<svg width="15" height="14" viewBox="0 0 15 14" fill="none" xmlns="http://www.w3.org/2000/svg">
<g clip-path="url(#clip0_1545_9260)">
<path d="M7.98997 1.08992L9.57997 4.29992C9.61613 4.38139 9.67302 4.45197 9.74496 4.5046C9.8169 4.55724 9.90137 4.59011 9.98997 4.59992L13.5 5.11992C13.6016 5.13298 13.6974 5.17469 13.7762 5.24017C13.855 5.30566 13.9136 5.39221 13.9451 5.48973C13.9765 5.58725 13.9796 5.69171 13.9539 5.7909C13.9282 5.89009 13.8748 5.97993 13.8 6.04992L11.27 8.55992C11.2054 8.62025 11.1569 8.69576 11.129 8.77959C11.1011 8.86343 11.0945 8.95291 11.11 9.03992L11.72 12.5699C11.7376 12.6714 11.7265 12.7757 11.6878 12.8711C11.649 12.9665 11.5843 13.0491 11.501 13.1096C11.4176 13.17 11.319 13.2058 11.2162 13.2129C11.1135 13.2201 11.0109 13.1982 10.92 13.1499L7.75997 11.4799C7.67906 11.4402 7.59011 11.4195 7.49997 11.4195C7.40983 11.4195 7.32089 11.4402 7.23997 11.4799L4.07997 13.1499C3.98906 13.1982 3.88641 13.2201 3.7837 13.2129C3.68099 13.2058 3.58234 13.17 3.49899 13.1096C3.41563 13.0491 3.35091 12.9665 3.31219 12.8711C3.27347 12.7757 3.26231 12.6714 3.27997 12.5699L3.88997 8.99992C3.90543 8.91291 3.89889 8.82343 3.87095 8.73959C3.843 8.65576 3.79454 8.58025 3.72997 8.51992L1.16997 6.04992C1.09423 5.97802 1.04097 5.88569 1.01664 5.78413C0.9923 5.68258 0.997936 5.57614 1.03286 5.47772C1.06778 5.3793 1.1305 5.29311 1.2134 5.22961C1.29631 5.1661 1.39585 5.128 1.49997 5.11992L5.00997 4.59992C5.09857 4.59011 5.18305 4.55724 5.25499 4.5046C5.32692 4.45197 5.38381 4.38139 5.41997 4.29992L7.00997 1.08992C7.05327 0.996428 7.12241 0.917275 7.20924 0.861803C7.29606 0.806331 7.39694 0.776855 7.49997 0.776855C7.603 0.776855 7.70388 0.806331 7.79071 0.861803C7.87753 0.917275 7.94667 0.996428 7.98997 1.08992V1.08992Z" stroke="#000001" stroke-linecap="round" stroke-linejoin="round"/>
</g>
<defs>
<clipPath id="clip0_1545_9260">
<rect width="14" height="14" fill="white" transform="translate(0.5)"/>
</clipPath>
</defs>
</svg>
